<svg width="1440" height="737" xmlns="http://www.w3.org/2000/svg"><g><path d="M-61,-110L-100,219L-28,81Z" fill="#e64534" stroke="#e64534"/><path d="M-61,-110L-28,81L45,-112Z" fill="#ea1d1e" stroke="#ea1d1e"/><path d="M-61,-110L45,-112L343,-131Z" fill="#f42d1f" stroke="#f42d1f"/><path d="M45,-112L-28,81L128,110Z" fill="#ef4a36" stroke="#ef4a36"/><path d="M45,-112L128,110L194,24Z" fill="#f55039" stroke="#f55039"/><path d="M45,-112L194,24L221,-120Z" fill="#f7362a" stroke="#f7362a"/><path d="M45,-112L221,-120L343,-131Z" fill="#fb4029" stroke="#fb4029"/><path d="M221,-120L194,24L343,-131Z" fill="#fe4933" stroke="#fe4933"/><path d="M343,-131L194,24L316,92Z" fill="#fe6848" stroke="#fe6848"/><path d="M343,-131L316,92L539,20Z" fill="#fe7c55" stroke="#fe7c55"/><path d="M343,-131L539,20L542,-90Z" fill="#ff6f4e" stroke="#ff6f4e"/><path d="M343,-131L542,-90L722,-134Z" fill="#fb7254" stroke="#fb7254"/><path d="M542,-90L539,20L725,17Z" fill="#f78a75" stroke="#f78a75"/><path d="M542,-90L725,17L722,-134Z" fill="#f37776" stroke="#f37776"/><path d="M722,-134L725,17L796,-53Z" fill="#eb7a84" stroke="#eb7a84"/><path d="M722,-134L796,-53L1087,-102Z" fill="#d76a73" stroke="#d76a73"/><path d="M722,-134L1087,-102L1435,-108Z" fill="#b54d64" stroke="#b54d64"/><path d="M796,-53L725,17L870,20Z" fill="#e38b8d" stroke="#e38b8d"/><path d="M796,-53L870,20L1014,-31Z" fill="#d37a84" stroke="#d37a84"/><path d="M796,-53L1014,-31L1087,-102Z" fill="#c75f75" stroke="#c75f75"/><path d="M1014,-31L870,20L941,28Z" fill="#cb8187" stroke="#cb8187"/><path d="M1014,-31L941,28L1159,90Z" fill="#bc7d85" stroke="#bc7d85"/><path d="M1014,-31L1159,90L1087,-102Z" fill="#b46277" stroke="#b46277"/><path d="M1087,-102L1159,90L1246,-36Z" fill="#a85670" stroke="#a85670"/><path d="M1087,-102L1246,-36L1435,-108Z" fill="#993259" stroke="#993259"/><path d="M1246,-36L1159,90L1331,46Z" fill="#9b5f76" stroke="#9b5f76"/><path d="M1246,-36L1331,46L1435,-108Z" fill="#8d335e" stroke="#8d335e"/><path d="M1435,-108L1331,46L1526,48Z" fill="#80325e" stroke="#80325e"/><path d="M1435,-108L1526,48L1578,-82Z" fill="#80114c" stroke="#80114c"/><path d="M1578,-82L1526,48L1534,167Z" fill="#803660" stroke="#803660"/><path d="M1578,-82L1534,167L1588,556Z" fill="#80768a" stroke="#80768a"/><path d="M-28,81L-100,219L98,198Z" fill="#ea7a53" stroke="#ea7a53"/><path d="M-28,81L98,198L128,110Z" fill="#f07c52" stroke="#f07c52"/><path d="M128,110L98,198L199,243Z" fill="#f69d68" stroke="#f69d68"/><path d="M128,110L199,243L316,92Z" fill="#fc9f66" stroke="#fc9f66"/><path d="M128,110L316,92L194,24Z" fill="#fc8053" stroke="#fc8053"/><path d="M316,92L199,243L341,257Z" fill="#febd7b" stroke="#febd7b"/><path d="M316,92L341,257L486,218Z" fill="#fecb84" stroke="#fecb84"/><path d="M316,92L486,218L539,20Z" fill="#ffb976" stroke="#ffb976"/><path d="M539,20L486,218L702,254Z" fill="#f9d79d" stroke="#f9d79d"/><path d="M539,20L702,254L725,17Z" fill="#f4c09d" stroke="#f4c09d"/><path d="M725,17L702,254L844,171Z" fill="#ead2b6" stroke="#ead2b6"/><path d="M725,17L844,171L870,20Z" fill="#e0ac9f" stroke="#e0ac9f"/><path d="M870,20L844,171L941,28Z" fill="#d5a59b" stroke="#d5a59b"/><path d="M941,28L844,171L944,178Z" fill="#d1baa7" stroke="#d1baa7"/><path d="M941,28L944,178L1113,177Z" fill="#c2afa1" stroke="#c2afa1"/><path d="M941,28L1113,177L1159,90Z" fill="#b79894" stroke="#b79894"/><path d="M1159,90L1113,177L1258,265Z" fill="#a6a6a0" stroke="#a6a6a0"/><path d="M1159,90L1258,265L1331,46Z" fill="#9a8b8e" stroke="#9a8b8e"/><path d="M1331,46L1258,265L1438,110Z" fill="#8c7f88" stroke="#8c7f88"/><path d="M1331,46L1438,110L1526,48Z" fill="#80526f" stroke="#80526f"/><path d="M1438,110L1258,265L1477,230Z" fill="#848d95" stroke="#848d95"/><path d="M1438,110L1477,230L1534,167Z" fill="#807485" stroke="#807485"/><path d="M1438,110L1534,167L1526,48Z" fill="#805a73" stroke="#805a73"/><path d="M-100,219L-115,504L-82,428Z" fill="#df8389" stroke="#df8389"/><path d="M-100,219L-82,428L85,419Z" fill="#e9918b" stroke="#e9918b"/><path d="M-100,219L85,419L98,198Z" fill="#ed9d78" stroke="#ed9d78"/><path d="M98,198L85,419L199,243Z" fill="#f5b085" stroke="#f5b085"/><path d="M199,243L85,419L237,318Z" fill="#f9b997" stroke="#f9b997"/><path d="M199,243L237,318L341,257Z" fill="#feca8e" stroke="#feca8e"/><path d="M341,257L237,318L403,413Z" fill="#fed5a9" stroke="#fed5a9"/><path d="M341,257L403,413L532,331Z" fill="#ffe6b5" stroke="#ffe6b5"/><path d="M341,257L532,331L486,218Z" fill="#ffeba3" stroke="#ffeba3"/><path d="M486,218L532,331L702,254Z" fill="#f9f3ba" stroke="#f9f3ba"/><path d="M702,254L532,331L627,391Z" fill="#f6f5d8" stroke="#f6f5d8"/><path d="M702,254L627,391L820,406Z" fill="#f0f9f5" stroke="#f0f9f5"/><path d="M702,254L820,406L844,171Z" fill="#e4f2d9" stroke="#e4f2d9"/><path d="M844,171L820,406L944,178Z" fill="#d7e9cb" stroke="#d7e9cb"/><path d="M944,178L820,406L1014,398Z" fill="#cee3e1" stroke="#cee3e1"/><path d="M944,178L1014,398L1113,177Z" fill="#bed5c1" stroke="#bed5c1"/><path d="M1113,177L1014,398L1179,328Z" fill="#b2c9cb" stroke="#b2c9cb"/><path d="M1113,177L1179,328L1258,265Z" fill="#a5bdb5" stroke="#a5bdb5"/><path d="M1258,265L1179,328L1224,356Z" fill="#9fb7c7" stroke="#9fb7c7"/><path d="M1258,265L1224,356L1397,330Z" fill="#94acc1" stroke="#94acc1"/><path d="M1258,265L1397,330L1477,230Z" fill="#869fac" stroke="#869fac"/><path d="M1477,230L1397,330L1549,406Z" fill="#8090b4" stroke="#8090b4"/><path d="M1477,230L1549,406L1534,167Z" fill="#80899e" stroke="#80899e"/><path d="M1534,167L1549,406L1588,556Z" fill="#7d82bd" stroke="#7d82bd"/><path d="M-82,428L-115,504L77,486Z" fill="#c5858f" stroke="#c5858f"/><path d="M-82,428L77,486L85,419Z" fill="#d49496" stroke="#d49496"/><path d="M85,419L77,486L207,514Z" fill="#d2a4a0" stroke="#d2a4a0"/><path d="M85,419L207,514L237,318Z" fill="#e9b4a6" stroke="#e9b4a6"/><path d="M237,318L207,514L403,413Z" fill="#eec9b1" stroke="#eec9b1"/><path d="M403,413L207,514L389,499Z" fill="#dbcbb7" stroke="#dbcbb7"/><path d="M403,413L389,499L528,511Z" fill="#dbddc3" stroke="#dbddc3"/><path d="M403,413L528,511L532,331Z" fill="#eeebc9" stroke="#eeebc9"/><path d="M532,331L528,511L627,391Z" fill="#ecefda" stroke="#ecefda"/><path d="M627,391L528,511L684,583Z" fill="#cce6e4" stroke="#cce6e4"/><path d="M627,391L684,583L820,406Z" fill="#d2effa" stroke="#d2effa"/><path d="M820,406L684,583L789,573Z" fill="#b4dcf4" stroke="#b4dcf4"/><path d="M820,406L789,573L1009,524Z" fill="#aad8f1" stroke="#aad8f1"/><path d="M820,406L1009,524L1014,398Z" fill="#b1d9ee" stroke="#b1d9ee"/><path d="M1014,398L1009,524L1095,472Z" fill="#9cc9e7" stroke="#9cc9e7"/><path d="M1014,398L1095,472L1179,328Z" fill="#a8c7e2" stroke="#a8c7e2"/><path d="M1179,328L1095,472L1224,356Z" fill="#a2bddd" stroke="#a2bddd"/><path d="M1224,356L1095,472L1233,545Z" fill="#87b3db" stroke="#87b3db"/><path d="M1224,356L1233,545L1397,330Z" fill="#87a9d3" stroke="#87a9d3"/><path d="M1397,330L1233,545L1465,481Z" fill="#6c98cc" stroke="#6c98cc"/><path d="M1397,330L1465,481L1549,406Z" fill="#738dc4" stroke="#738dc4"/><path d="M1549,406L1465,481L1588,556Z" fill="#5a7abf" stroke="#5a7abf"/><path d="M-115,504L-77,832L-47,642Z" fill="#7e3e6f" stroke="#7e3e6f"/><path d="M-115,504L-47,642L77,486Z" fill="#ad7288" stroke="#ad7288"/><path d="M77,486L-47,642L96,635Z" fill="#a26f88" stroke="#a26f88"/><path d="M77,486L96,635L207,514Z" fill="#b88f98" stroke="#b88f98"/><path d="M207,514L96,635L217,633Z" fill="#aa8795" stroke="#aa8795"/><path d="M207,514L217,633L389,499Z" fill="#c0a9a6" stroke="#c0a9a6"/><path d="M389,499L217,633L412,626Z" fill="#b2a7a8" stroke="#b2a7a8"/><path d="M389,499L412,626L528,511Z" fill="#c2c8bb" stroke="#c2c8bb"/><path d="M528,511L412,626L481,674Z" fill="#acb9b5" stroke="#acb9b5"/><path d="M528,511L481,674L684,583Z" fill="#acc2ca" stroke="#acc2ca"/><path d="M684,583L481,674L718,627Z" fill="#9ab7d1" stroke="#9ab7d1"/><path d="M684,583L718,627L789,573Z" fill="#9fc5ea" stroke="#9fc5ea"/><path d="M789,573L718,627L846,729Z" fill="#84aedf" stroke="#84aedf"/><path d="M789,573L846,729L990,660Z" fill="#71a0d8" stroke="#71a0d8"/><path d="M789,573L990,660L1009,524Z" fill="#81b3e0" stroke="#81b3e0"/><path d="M1009,524L990,660L1077,629Z" fill="#6b9fd5" stroke="#6b9fd5"/><path d="M1009,524L1077,629L1095,472Z" fill="#7db0dd" stroke="#7db0dd"/><path d="M1095,472L1077,629L1233,545Z" fill="#6fa2d6" stroke="#6fa2d6"/><path d="M1233,545L1077,629L1309,681Z" fill="#497ec5" stroke="#497ec5"/><path d="M1233,545L1309,681L1465,481Z" fill="#477cc2" stroke="#477cc2"/><path d="M1465,481L1309,681L1428,696Z" fill="#2a5fb4" stroke="#2a5fb4"/><path d="M1465,481L1428,696L1588,556Z" fill="#3760b4" stroke="#3760b4"/><path d="M1588,556L1428,696L1569,685Z" fill="#1e42a6" stroke="#1e42a6"/><path d="M-47,642L-77,832L101,834Z" fill="#6b2465" stroke="#6b2465"/><path d="M-47,642L101,834L96,635Z" fill="#784776" stroke="#784776"/><path d="M96,635L101,834L237,770Z" fill="#774a79" stroke="#774a79"/><path d="M96,635L237,770L217,633Z" fill="#8b6a88" stroke="#8b6a88"/><path d="M217,633L237,770L412,626Z" fill="#907e94" stroke="#907e94"/><path d="M412,626L237,770L481,674Z" fill="#8c889b" stroke="#8c889b"/><path d="M481,674L237,770L480,842Z" fill="#7f7293" stroke="#7f7293"/><path d="M481,674L480,842L663,796Z" fill="#7b80a8" stroke="#7b80a8"/><path d="M481,674L663,796L718,627Z" fill="#809dc4" stroke="#809dc4"/><path d="M718,627L663,796L808,788Z" fill="#6f92d3" stroke="#6f92d3"/><path d="M718,627L808,788L846,729Z" fill="#6993d3" stroke="#6993d3"/><path d="M846,729L808,788L1028,789Z" fill="#5474c4" stroke="#5474c4"/><path d="M846,729L1028,789L990,660Z" fill="#4a7dc8" stroke="#4a7dc8"/><path d="M990,660L1028,789L1077,629Z" fill="#497ec6" stroke="#497ec6"/><path d="M1077,629L1028,789L1101,797Z" fill="#3867bc" stroke="#3867bc"/><path d="M1077,629L1101,797L1309,681Z" fill="#3166ba" stroke="#3166ba"/><path d="M1309,681L1101,797L1311,832Z" fill="#1c42a9" stroke="#1c42a9"/><path d="M1309,681L1311,832L1428,696Z" fill="#0b3da6" stroke="#0b3da6"/><path d="M1428,696L1311,832L1439,874Z" fill="#041f98" stroke="#041f98"/><path d="M1428,696L1439,874L1535,803Z" fill="#001793" stroke="#001793"/><path d="M1428,696L1535,803L1569,685Z" fill="#00279a" stroke="#00279a"/><path d="M-77,832L433,884L101,834Z" fill="#773669" stroke="#773669"/><path d="M101,834L433,884L237,770Z" fill="#7e4a77" stroke="#7e4a77"/><path d="M237,770L433,884L480,842Z" fill="#7f6085" stroke="#7f6085"/><path d="M433,884L1439,874L1101,797Z" fill="#445bb0" stroke="#445bb0"/><path d="M433,884L1101,797L1028,789Z" fill="#5a6bbe" stroke="#5a6bbe"/><path d="M433,884L1028,789L808,788Z" fill="#6a76c4" stroke="#6a76c4"/><path d="M433,884L808,788L663,796Z" fill="#7676b3" stroke="#7676b3"/><path d="M433,884L663,796L480,842Z" fill="#7c7299" stroke="#7c7299"/><path d="M1101,797L1439,874L1311,832Z" fill="#162e9b" stroke="#162e9b"/></g></svg>